<?xml version="1.0" encoding="utf-8"?>
<!-- Generator: Adobe Illustrator 16.0.4, SVG Export Plug-In . SVG Version: 6.00 Build 0)  -->
<!DOCTYPE svg PUBLIC "-//W3C//DTD SVG 1.1//EN" "http://www.w3.org/Graphics/SVG/1.1/DTD/svg11.dtd">
<svg version="1.1" id="Layer_1" xmlns="http://www.w3.org/2000/svg" xmlns:xlink="http://www.w3.org/1999/xlink" x="0px" y="0px"
	 width="50px" height="11.724px" viewBox="0 0 50 11.724" enable-background="new 0 0 50 11.724" xml:space="preserve">
<g>
	<path fill="#FFFFFF" d="M4.334,2.794c0-0.854,0.574-1.608,1.625-1.608c0.984,0,1.599,0.643,2.468,2.565
		c0.053,0.114,0.196,0.208,0.321,0.208h0.416c0.126,0,0.25-0.099,0.278-0.222l0.72-3.183c0.028-0.123-0.051-0.222-0.177-0.222H9.536
		c-0.125,0-0.294,0.078-0.376,0.172L8.751,0.98c-0.082,0.095-0.23,0.112-0.336,0.044c-0.59-0.378-1.374-0.659-2.291-0.659
		c-2.611,0-4.153,1.854-4.153,3.66c0,1.46,0.87,2.283,2.84,3.218C6.074,7.835,6.535,8.31,6.535,9.131c0,0.902-0.624,1.74-1.773,1.74
		c-1.098,0-1.962-0.678-2.913-2.781c-0.051-0.115-0.193-0.208-0.32-0.208H1.116c-0.126,0-0.252,0.1-0.282,0.222l-0.827,3.399
		c-0.03,0.121,0.048,0.22,0.174,0.22h0.512c0.125,0,0.29-0.081,0.366-0.181l0.349-0.458c0.076-0.101,0.224-0.127,0.334-0.067
		c0.769,0.423,1.788,0.674,2.89,0.674c2.839,0,4.218-1.855,4.218-3.81c0-1.295-0.804-2.148-2.265-2.921
		C4.992,4.124,4.334,3.779,4.334,2.794z"/>
	<path fill="#FFFFFF" d="M14.16,3.681c-3.184,0-4.841,2.529-4.841,4.975c0,1.575,1.197,2.906,3.216,2.906
		c3.185,0,4.844-2.528,4.844-4.974C17.379,5.01,16.18,3.681,14.16,3.681z M12.535,10.789c-0.476,0-0.754-0.377-0.754-1.15
		c0-2.183,1.166-5.185,2.379-5.185c0.477,0,0.757,0.376,0.757,1.147C14.917,7.784,13.784,10.789,12.535,10.789z"/>
	<path fill="#FFFFFF" d="M25.952,5.355c0-1.001-0.721-1.625-1.773-1.625c-0.864,0-1.683,0.436-2.598,1.169
		c-0.098,0.078-0.19,0.129-0.208,0.11c-0.018-0.018,0-0.13,0.039-0.25l0.251-0.766c0.04-0.119-0.031-0.209-0.157-0.202L18.12,3.995
		c-0.125,0.007-0.227,0.116-0.227,0.242v0.218c0,0.126,0.102,0.233,0.227,0.249c0.798,0.093,0.831,0.379,0.708,0.833l-0.884,3.234
		l-0.83,2.442c-0.042,0.119,0.028,0.216,0.154,0.216h2.269c0.125,0,0.251-0.099,0.281-0.221l1.271-5.221
		c0.03-0.122,0.138-0.279,0.246-0.343c0.391-0.233,0.889-0.437,1.35-0.437c0.444,0,0.69,0.23,0.69,0.642
		c0,0.195-0.048,0.476-0.164,0.853l-0.887,2.724c-0.115,0.344-0.163,0.625-0.163,0.887c0,0.837,0.607,1.249,1.706,1.249
		c0.543,0,1.39-0.142,1.866-0.265c0.122-0.031,0.218-0.166,0.218-0.292v-0.218c0-0.126-0.102-0.226-0.228-0.226
		c-0.879,0-1.116-0.097-1.116-0.446c0-0.179,0.064-0.426,0.179-0.77l1.002-3.072C25.888,5.946,25.952,5.601,25.952,5.355z"/>
	<path fill="#FFFFFF" d="M34.517,5.263l1.424-5.056C35.975,0.085,35.901-0.006,35.775,0l-3.96,0.22
		c-0.125,0.007-0.228,0.114-0.228,0.241v0.216c0,0.126,0.102,0.234,0.228,0.247c0.867,0.086,1.304,0.324,1.167,0.854l-0.383,1.509
		c-0.031,0.122,0.002,0.305,0.079,0.404c0.267,0.353,0.826,1.029,1.599,1.651C34.374,5.421,34.483,5.384,34.517,5.263z"/>
	<path fill="#FFFFFF" d="M37.291,8.425c0-0.065,0-0.136,0.002-0.206c0.003-0.114,0.116-0.206,0.242-0.208
		c3.212-0.044,4.779-1.03,4.779-2.411c0-1.033-0.821-1.92-2.644-1.92c-1.822,0-3.275,0.944-4.118,2.231
		c-0.069,0.105-0.03,0.241,0.084,0.295c0.523,0.246,1.095,0.42,1.707,0.455c0.126,0.007,0.26-0.09,0.304-0.208
		c0.423-1.114,1.173-1.919,1.893-1.919c0.41,0,0.722,0.263,0.722,0.87c0,0.952-0.674,1.887-2.874,1.97
		c-2.981,0-5.077-2.956-5.077-2.956c-0.328-0.394-0.673-0.739-1.691-0.739c-1.839,0-4.433,1.986-4.433,5.171
		c0,1.838,1.199,2.709,2.347,2.709c0.845,0,1.272-0.288,2.049-1.009c0.093-0.086,0.2-0.145,0.24-0.132
		c0.041,0.013,0.076,0.126,0.097,0.251c0.106,0.649,0.566,0.891,1.439,0.891c0.679,0,1.485-0.141,1.948-0.264
		c0.122-0.032,0.219-0.167,0.219-0.292v-0.218c0-0.126-0.103-0.226-0.228-0.225c-0.796,0.005-1.086-0.055-1.086-0.447
		c0-0.229,0.099-0.557,0.23-1.033l0.525-1.865c0.034-0.121,0.146-0.163,0.253-0.097c0.143,0.088,0.293,0.173,0.45,0.253
		c0.112,0.057,0.18,0.2,0.156,0.323c-0.053,0.273-0.083,0.551-0.083,0.828c0,1.806,1.38,3.038,3.382,3.038
		c1.63,0,2.673-0.78,3.491-1.822c0.078-0.099,0.063-0.25-0.029-0.336l-0.11-0.101c-0.092-0.085-0.226-0.071-0.306,0.025
		c-0.561,0.669-1.371,1.101-2.126,1.101C37.881,10.428,37.291,9.707,37.291,8.425z M30.62,9.86
		c-0.302,0.219-0.502,0.288-0.805,0.288c-0.576,0-1.067-0.311-1.067-1.33c0-1.755,1.231-4.087,2.478-4.087
		c0.314,0,0.565,0.104,0.771,0.303c0.09,0.088,0.12,0.271,0.084,0.391l-1.215,4.078C30.83,9.624,30.722,9.787,30.62,9.86z"/>
	<path fill="#FFFFFF" d="M46.203,5.129c-0.08,0.098-0.158,0.162-0.176,0.144c-0.018-0.018-0.001-0.13,0.038-0.25l0.335-1.027
		c0.039-0.12-0.032-0.21-0.157-0.203l-3.385,0.202c-0.126,0.007-0.228,0.116-0.228,0.242v0.218c0,0.126,0.102,0.233,0.227,0.249
		c0.797,0.093,0.829,0.379,0.708,0.833l-0.888,3.234l-0.829,2.442c-0.04,0.119,0.029,0.216,0.155,0.216h2.27
		c0.125,0,0.253-0.099,0.282-0.221l1.155-4.745c0.029-0.122,0.12-0.299,0.207-0.39c0.395-0.416,0.832-0.7,1.317-0.854
		c0.12-0.038,0.177,0.032,0.143,0.154c-0.047,0.17-0.07,0.35-0.07,0.476c0,0.654,0.458,1.033,1.181,1.033
		c0.887,0,1.511-0.739,1.511-1.79c0-0.705-0.575-1.361-1.445-1.361C47.604,3.73,46.883,4.317,46.203,5.129z"/>
</g>
</svg>
